<svg width="32" height="32" viewBox="0 0 32 32" fill="none" xmlns="http://www.w3.org/2000/svg">
<g clip-path="url(#clip0_433_347)">
<path d="M16 0C7.16344 0 0 7.16344 0 16C0 24.8366 7.16344 32 16 32C24.8366 32 32 24.8366 32 16C32 7.16344 24.8366 0 16 0ZM16 2C23.732 2 30 8.26801 30 16C30 23.732 23.732 30 16 30C8.26801 30 2 23.732 2 16C2 8.26801 8.26801 2 16 2ZM16.2284 8.55736L9.15736 15.6284L9.17836 15.6506L9.15736 15.6716L16.2284 22.7426L17.6426 21.3284L12.9574 16.6436L23.4 16.6426V14.6426L12.9714 14.6436L17.6426 9.97157L16.2284 8.55736Z" fill="#39833c"/>
</g>
<defs>
<clipPath id="clip0_433_347">
<rect width="32" height="32" fill="white" transform="matrix(-1 0 0 1 32 0)"/>
</clipPath>
</defs>
</svg>
