<svg width="24" height="24" viewBox="0 0 24 24" fill="none" xmlns="http://www.w3.org/2000/svg">
<mask id="mask0_2327_456" style="mask-type:alpha" maskUnits="userSpaceOnUse" x="0" y="0" width="24" height="24">
<rect width="24" height="24" fill="#D9D9D9"/>
</mask>
<g mask="url(#mask0_2327_456)">
<path d="M9.51867 15.6155C7.81099 15.6155 6.36485 15.0232 5.18025 13.8386C3.99563 12.6539 3.40332 11.2078 3.40332 9.50012C3.40332 7.79243 3.99563 6.34628 5.18025 5.16167C6.36485 3.97707 7.81099 3.38477 9.51867 3.38477C11.2264 3.38477 12.6725 3.97707 13.8571 5.16167C15.0417 6.34628 15.634 7.79243 15.634 9.50012C15.634 10.2142 15.5142 10.8963 15.2744 11.5463C15.0347 12.1963 14.7148 12.7616 14.3148 13.2424L20.0687 18.9963C20.2071 19.1347 20.2779 19.3088 20.2811 19.5184C20.2844 19.728 20.2135 19.9052 20.0687 20.0501C19.9238 20.195 19.7481 20.2674 19.5417 20.2674C19.3353 20.2674 19.1597 20.195 19.0148 20.0501L13.261 14.2962C12.761 14.7091 12.186 15.0321 11.536 15.2655C10.886 15.4988 10.2135 15.6155 9.51867 15.6155ZM9.51867 14.1155C10.8071 14.1155 11.8985 13.6684 12.7927 12.7742C13.687 11.8799 14.1341 10.7886 14.1341 9.50012C14.1341 8.21165 13.687 7.1203 12.7927 6.22607C11.8985 5.33183 10.8071 4.88472 9.51867 4.88472C8.2302 4.88472 7.13885 5.33183 6.24462 6.22607C5.3504 7.1203 4.9033 8.21165 4.9033 9.50012C4.9033 10.7886 5.3504 11.8799 6.24462 12.7742C7.13885 13.6684 8.2302 14.1155 9.51867 14.1155Z" fill="white"/>
</g>
</svg>
